<svg width="24" height="24" viewBox="0 0 24 24" fill="none" xmlns="http://www.w3.org/2000/svg">
<path d="M21.39 5.6856L13.71 1.6056C13.19 1.33937 12.6142 1.20053 12.03 1.20053C11.4458 1.20053 10.87 1.33937 10.35 1.6056L2.67 5.6856C2.46499 5.77949 2.29267 5.93242 2.17509 6.12482C2.05752 6.31722 2.00003 6.54034 2.01 6.7656V16.2456C2.00713 16.6774 2.12318 17.1016 2.34543 17.4718C2.56768 17.842 2.88756 18.1439 3.27 18.3444L11.37 22.6644C11.5469 22.7532 11.7421 22.7994 11.94 22.7994C12.1379 22.7994 12.3331 22.7532 12.51 22.6644L20.73 18.3444C21.1075 18.1379 21.4231 17.8347 21.6446 17.4658C21.866 17.097 21.9852 16.6758 21.99 16.2456V6.7056C21.9907 6.49724 21.9353 6.29253 21.8298 6.11288C21.7242 5.93323 21.5723 5.78524 21.39 5.6844V5.6856ZM10.83 19.6056L4.47 16.2456V8.6856L10.83 12.1044V19.6056ZM12.03 10.0056L5.85 6.7056L11.49 3.7056C11.6669 3.61682 11.8621 3.57059 12.06 3.57059C12.2579 3.57059 12.4531 3.61682 12.63 3.7056L18.27 6.7056L12.03 10.0056ZM19.59 16.2456L13.23 19.6056V12.1056L19.59 8.7456V16.2456Z" fill="black"/>
</svg>
