<svg width="18" height="18" viewBox="0 0 18 18" fill="none" xmlns="http://www.w3.org/2000/svg">
<path d="M16.0425 4.26421L10.2825 1.20421C9.8925 1.00453 9.46064 0.900406 9.0225 0.900406C8.58436 0.900406 8.1525 1.00453 7.7625 1.20421L2.0025 4.26421C1.84875 4.33462 1.7195 4.44932 1.63132 4.59362C1.54314 4.73793 1.50002 4.90526 1.5075 5.07421V12.1842C1.50535 12.508 1.59238 12.8262 1.75907 13.1039C1.92576 13.3815 2.16567 13.608 2.4525 13.7583L8.5275 16.9983C8.66017 17.0649 8.80656 17.0996 8.955 17.0996C9.10344 17.0996 9.24983 17.0649 9.3825 16.9983L15.5475 13.7583C15.8306 13.6035 16.0673 13.376 16.2334 13.0994C16.3995 12.8227 16.4889 12.5069 16.4925 12.1842V5.02921C16.493 4.87294 16.4515 4.7194 16.3723 4.58467C16.2932 4.44993 16.1792 4.33894 16.0425 4.26331V4.26421ZM8.1225 14.7042L3.3525 12.1842V6.51421L8.1225 9.07831V14.7042ZM9.0225 7.50421L4.3875 5.02921L8.6175 2.77921C8.75017 2.71263 8.89656 2.67795 9.045 2.67795C9.19344 2.67795 9.33983 2.71263 9.4725 2.77921L13.7025 5.02921L9.0225 7.50421ZM14.6925 12.1842L9.9225 14.7042V9.07921L14.6925 6.55921V12.1842Z" fill="black"/>
</svg>
