<svg width="24" height="24" viewBox="0 0 24 24" fill="none" xmlns="http://www.w3.org/2000/svg">
<path d="M12 2.22479C5.4 2.22479 1.2 6.23999 1.2 11.16C1.2 16.08 5.4 20.1 12 20.1C13.14 20.1 14.7 19.92 15.6 19.62L19.08 21.6C19.86 22.08 20.88 21.48 20.88 20.58V16.26C20.94 16.2 20.94 16.14 21 16.14C22.2 14.34 22.8 13.44 22.8 11.16C22.8 6.23999 18.6 2.22479 12 2.22479ZM20.1 12.9048C19.7402 13.6077 19.3395 14.2888 18.9 14.9448C18.66 15.3648 18.48 15.7848 18.48 16.2648V18.5448L16.8 17.52C16.515 17.3452 16.1938 17.2381 15.8609 17.2069C15.5281 17.1757 15.1925 17.2212 14.88 17.34C14.34 17.52 13.08 17.64 12.06 17.64C6.42 17.64 3.66 14.4 3.66 11.1C3.6 7.85999 6.36 4.61999 12 4.61999C17.64 4.61999 20.4 7.85999 20.4 11.16C20.4 12.06 20.28 12.48 20.1 12.9V12.9048ZM10.2 11.2248C10.2 11.5808 10.3056 11.9288 10.5034 12.2248C10.7011 12.5208 10.9823 12.7515 11.3112 12.8878C11.6401 13.024 12.002 13.0597 12.3512 12.9902C12.7003 12.9208 13.0211 12.7493 13.2728 12.4976C13.5245 12.2458 13.696 11.9251 13.7654 11.576C13.8349 11.2268 13.7992 10.8649 13.663 10.536C13.5267 10.2071 13.296 9.92593 13 9.72815C12.704 9.53036 12.356 9.42479 12 9.42479C11.5226 9.42479 11.0648 9.61443 10.7272 9.952C10.3896 10.2896 10.2 10.7474 10.2 11.2248ZM5.4 11.2248C5.4 11.7022 5.58964 12.16 5.92721 12.4976C6.26477 12.8351 6.72261 13.0248 7.2 13.0248C7.67739 13.0248 8.13523 12.8351 8.47279 12.4976C8.81036 12.16 9 11.7022 9 11.2248C9 10.7474 8.81036 10.2896 8.47279 9.952C8.13523 9.61443 7.67739 9.42479 7.2 9.42479C6.72261 9.42479 6.26477 9.61443 5.92721 9.952C5.58964 10.2896 5.4 10.7474 5.4 11.2248ZM15 11.2248C15 11.7022 15.1896 12.16 15.5272 12.4976C15.8648 12.8351 16.3226 13.0248 16.8 13.0248C17.2774 13.0248 17.7352 12.8351 18.0728 12.4976C18.4104 12.16 18.6 11.7022 18.6 11.2248C18.6 10.7474 18.4104 10.2896 18.0728 9.952C17.7352 9.61443 17.2774 9.42479 16.8 9.42479C16.3226 9.42479 15.8648 9.61443 15.5272 9.952C15.1896 10.2896 15 10.7474 15 11.2248Z" fill="black"/>
</svg>
