<svg width="18" height="18" viewBox="0 0 18 18" fill="none" xmlns="http://www.w3.org/2000/svg">
<path d="M9 1.66859C4.05 1.66859 0.9 4.67999 0.9 8.36999C0.9 12.06 4.05 15.075 9 15.075C9.855 15.075 11.025 14.94 11.7 14.715L14.31 16.2C14.895 16.56 15.66 16.11 15.66 15.435V12.195C15.705 12.15 15.705 12.105 15.75 12.105C16.65 10.755 17.1 10.08 17.1 8.36999C17.1 4.67999 13.95 1.66859 9 1.66859ZM15.075 9.67859C14.8052 10.2057 14.5046 10.7166 14.175 11.2086C13.995 11.5236 13.86 11.8386 13.86 12.1986V13.9086L12.6 13.14C12.3863 13.0089 12.1453 12.9286 11.8957 12.9052C11.6461 12.8818 11.3944 12.9159 11.16 13.005C10.755 13.14 9.81 13.23 9.045 13.23C4.815 13.23 2.745 10.8 2.745 8.32499C2.7 5.89499 4.77 3.46499 9 3.46499C13.23 3.46499 15.3 5.89499 15.3 8.36999C15.3 9.04499 15.21 9.35999 15.075 9.67499V9.67859ZM7.65 8.41859C7.65 8.6856 7.72918 8.94661 7.87752 9.16861C8.02586 9.39062 8.2367 9.56365 8.48338 9.66583C8.73006 9.76801 9.0015 9.79474 9.26337 9.74265C9.52525 9.69056 9.76579 9.56199 9.95459 9.37319C10.1434 9.18439 10.272 8.94384 10.3241 8.68197C10.3762 8.42009 10.3494 8.14865 10.2472 7.90197C10.1451 7.65529 9.97203 7.44445 9.75002 7.29611C9.52801 7.14777 9.267 7.06859 9 7.06859C8.64196 7.06859 8.29858 7.21083 8.04541 7.464C7.79223 7.71717 7.65 8.06055 7.65 8.41859ZM4.05 8.41859C4.05 8.77664 4.19223 9.12001 4.44541 9.37319C4.69858 9.62636 5.04196 9.76859 5.4 9.76859C5.75804 9.76859 6.10142 9.62636 6.35459 9.37319C6.60777 9.12001 6.75 8.77664 6.75 8.41859C6.75 8.06055 6.60777 7.71717 6.35459 7.464C6.10142 7.21083 5.75804 7.06859 5.4 7.06859C5.04196 7.06859 4.69858 7.21083 4.44541 7.464C4.19223 7.71717 4.05 8.06055 4.05 8.41859ZM11.25 8.41859C11.25 8.77664 11.3922 9.12001 11.6454 9.37319C11.8986 9.62636 12.242 9.76859 12.6 9.76859C12.958 9.76859 13.3014 9.62636 13.5546 9.37319C13.8078 9.12001 13.95 8.77664 13.95 8.41859C13.95 8.06055 13.8078 7.71717 13.5546 7.464C13.3014 7.21083 12.958 7.06859 12.6 7.06859C12.242 7.06859 11.8986 7.21083 11.6454 7.464C11.3922 7.71717 11.25 8.06055 11.25 8.41859Z" fill="black"/>
</svg>
