<svg width="24" height="24" viewBox="0 0 24 24" fill="none" xmlns="http://www.w3.org/2000/svg">
<path d="M15.9264 9.45L9.1464 2.67C9.03803 2.55629 8.9077 2.46577 8.76331 2.40392C8.61892 2.34207 8.46348 2.31018 8.3064 2.31018C8.14932 2.31018 7.99388 2.34207 7.84949 2.40392C7.7051 2.46577 7.57477 2.55629 7.4664 2.67C7.35269 2.77837 7.26217 2.9087 7.20032 3.05309C7.13847 3.19748 7.10658 3.35292 7.10658 3.51C7.10658 3.66708 7.13847 3.82252 7.20032 3.96691C7.26217 4.1113 7.35269 4.24163 7.4664 4.35L14.2464 11.13C14.3601 11.2384 14.4506 11.3687 14.5125 11.5131C14.5743 11.6575 14.6062 11.8129 14.6062 11.97C14.6062 12.1271 14.5743 12.2825 14.5125 12.4269C14.4506 12.5713 14.3601 12.7016 14.2464 12.81L7.4064 19.65C7.18733 19.8735 7.06532 20.1745 7.0669 20.4875C7.06848 20.8005 7.19352 21.1002 7.41484 21.3216C7.63617 21.5429 7.93589 21.6679 8.24889 21.6695C8.56188 21.6711 8.86285 21.5491 9.0864 21.33L15.8664 14.55C17.3064 13.11 17.3064 10.83 15.9264 9.45Z" fill="black"/>
</svg>
