<svg width="24" height="24" viewBox="0 0 24 24" fill="none" xmlns="http://www.w3.org/2000/svg">
<path d="M12.9094 23.4703C6.58125 23.4703 1.43906 18.3234 1.43906 12C1.43906 5.67656 6.58594 0.529686 12.9094 0.529686C13.2937 0.529686 13.6781 0.548436 14.0625 0.585936C14.4 0.618748 14.6953 0.829686 14.8359 1.13437C14.9766 1.43906 14.9484 1.8 14.7609 2.08125C13.6828 3.66562 13.1109 5.51719 13.1109 7.43437C13.1109 12.3562 16.8 16.4437 21.6984 16.9312C22.0359 16.9641 22.3312 17.175 22.4719 17.4797C22.6172 17.7844 22.5844 18.1453 22.3969 18.4266C20.25 21.5859 16.7062 23.4703 12.9094 23.4703V23.4703ZM12.3234 2.47031C7.33125 2.775 3.36094 6.93281 3.36094 12C3.36094 17.2641 7.64531 21.5484 12.9094 21.5484C15.5531 21.5484 18.0469 20.4516 19.8375 18.5625C17.6719 18.0141 15.7078 16.8375 14.175 15.1594C12.2484 13.0406 11.1844 10.3031 11.1844 7.44375C11.1891 5.70469 11.5781 4.0125 12.3234 2.47031Z" fill="black"/>
</svg>
