<svg width="24" height="24" viewBox="0 0 24 24" fill="none" xmlns="http://www.w3.org/2000/svg">
<path d="M12 20.2641C11.4703 20.2641 11.0438 20.6906 11.0438 21.2203V22.5281C11.0438 23.0578 11.4703 23.4844 12 23.4844C12.5297 23.4844 12.9563 23.0578 12.9563 22.5281V21.2203C12.9563 20.6906 12.5297 20.2641 12 20.2641V20.2641Z" fill="black"/>
<path d="M12 4.80469C8.03438 4.80469 4.80469 8.02969 4.80469 12C4.80469 15.9656 8.02969 19.1953 12 19.1953C15.9656 19.1953 19.1953 15.9703 19.1953 12C19.1953 8.03438 15.9656 4.80469 12 4.80469ZM12 17.2781C9.08906 17.2781 6.72187 14.9109 6.72187 12C6.72187 9.08906 9.08906 6.72187 12 6.72187C14.9109 6.72187 17.2781 9.08906 17.2781 12C17.2781 14.9109 14.9109 17.2781 12 17.2781Z" fill="black"/>
<path d="M12 3.73594C12.5297 3.73594 12.9563 3.30937 12.9563 2.77969V1.47187C12.9563 0.942187 12.5297 0.515625 12 0.515625C11.4703 0.515625 11.0438 0.942187 11.0438 1.47187V2.77969C11.0438 3.30937 11.4703 3.73594 12 3.73594Z" fill="black"/>
<path d="M22.5281 11.0437H21.2203C20.6906 11.0437 20.2641 11.4703 20.2641 12C20.2641 12.5297 20.6906 12.9562 21.2203 12.9562H22.5281C23.0578 12.9562 23.4844 12.5297 23.4844 12C23.4844 11.4703 23.0578 11.0437 22.5281 11.0437V11.0437Z" fill="black"/>
<path d="M2.77969 11.0437H1.47187C0.942187 11.0437 0.515625 11.4703 0.515625 12C0.515625 12.5297 0.942187 12.9562 1.47187 12.9562H2.77969C3.30937 12.9562 3.73594 12.5297 3.73594 12C3.73594 11.4703 3.30937 11.0437 2.77969 11.0437V11.0437Z" fill="black"/>
<path d="M19.1953 6.15937L20.1188 5.23594C20.4938 4.86094 20.4938 4.25625 20.1188 3.88125C19.7438 3.50625 19.1391 3.50625 18.7641 3.88125L17.8406 4.80469C17.4656 5.17969 17.4656 5.78437 17.8406 6.15937C18.2156 6.53437 18.8203 6.52969 19.1953 6.15937Z" fill="black"/>
<path d="M4.80469 17.8406L3.88125 18.7641C3.50625 19.1391 3.50625 19.7437 3.88125 20.1187C4.25625 20.4937 4.86094 20.4937 5.23594 20.1187L6.15937 19.1953C6.53437 18.8203 6.53437 18.2156 6.15937 17.8406C5.78437 17.4656 5.17969 17.4703 4.80469 17.8406V17.8406Z" fill="black"/>
<path d="M19.1953 17.8406C18.8203 17.4656 18.2156 17.4656 17.8406 17.8406C17.4656 18.2156 17.4656 18.8203 17.8406 19.1953L18.7641 20.1187C19.1391 20.4937 19.7438 20.4937 20.1188 20.1187C20.4938 19.7437 20.4938 19.1391 20.1188 18.7641L19.1953 17.8406Z" fill="black"/>
<path d="M4.80469 6.15937C5.17969 6.53437 5.78437 6.53437 6.15937 6.15937C6.53437 5.78437 6.53437 5.17969 6.15937 4.80469L5.23594 3.88125C4.86094 3.50625 4.25625 3.50625 3.88125 3.88125C3.50625 4.25625 3.50625 4.86094 3.88125 5.23594L4.80469 6.15937V6.15937Z" fill="black"/>
</svg>
